# xmcd
#
# Track frame offsets:
#	150
#	31055
#	45303
#	65064
#	81344
#	92922
#	113525
#	130928
#	144884
#	161186
#	174872
#	191405
#	206400
#	223479
#	233579
#	247617
#	264998
#	278546
#	298914
#	316190
#
# Disc length: 4396 seconds
#
# Revision: 7
# Processed by: cddbd v1.5.2PL0 Copyright (c) Steve Scherf et al.
# Submitted via: EasyCDDAExtractor 12.0.1.1
#
DISCID=12112a14
DTITLE=Rocio Durcal - Serie Platino - 20 Exitos Vol 2
DYEAR=1997
DGENRE=Latin
TTITLE0=Amor Eterno
TTITLE1=Tarde
TTITLE2=Como Tu Mujer
TTITLE3=La Gata Bajo La Lluvia
TTITLE4=Juro Que Nunca Volvere
TTITLE5=Costumbres
TTITLE6=Quedate Conmigo Esta Noche
TTITLE7=Me Gustas Mucho
TTITLE8=No Lastimes Mas
TTITLE9=Fue Un Placer Conocerte
TTITLE10=Perdoname, Olvidalo
TTITLE11=Jamas Te Dejare
TTITLE12=No Sirvo Para Estar Sin Ti
TTITLE13=Te Llegara Mi Olvido
TTITLE14=Te Voy A Olvidar
TTITLE15=El Dia Que Me Acaricies Llorare
TTITLE16=Lagrimas Y Lluvia
TTITLE17=Nuevamente Sola
TTITLE18=Tu Sigues Siendo El Mismo
TTITLE19=Jamas Me Cansare De Ti
EXTD=YEAR: 1997
EXTT0=
EXTT1=
EXTT2=
EXTT3=
EXTT4=
EXTT5=
EXTT6=
EXTT7=
EXTT8=
EXTT9=
EXTT10=
EXTT11=
EXTT12=
EXTT13=
EXTT14=
EXTT15=
EXTT16=
EXTT17=
EXTT18=
EXTT19=
PLAYORDER=
